<?xml version="1.0" standalone="no"?>
<!DOCTYPE svg PUBLIC "-//W3C//DTD SVG 20010904//EN"
 "http://www.w3.org/TR/2001/REC-SVG-20010904/DTD/svg10.dtd">
<svg version="1.0" xmlns="http://www.w3.org/2000/svg"
 width="1789.000000pt" height="1789.000000pt" viewBox="0 0 1789.000000 1789.000000"
 preserveAspectRatio="xMidYMid meet">
<metadata>
Created by potrace 1.14, written by Peter Selinger 2001-2017
</metadata>
<g transform="translate(0.000000,1789.000000) scale(0.100000,-0.100000)"
fill="#000000" stroke="none">
<path d="M14680 17867 c-19 -12 -79 -81 -134 -153 -142 -185 -184 -234 -310
-359 -231 -229 -427 -343 -652 -382 -157 -26 -266 -6 -576 106 -32 12 -78 21
-103 21 -42 0 -51 -5 -157 -98 -318 -277 -543 -414 -774 -472 -111 -28 -268
-27 -360 1 -88 27 -192 79 -270 134 -77 56 -175 105 -206 105 -38 0 -111 -52
-211 -152 -161 -161 -200 -216 -417 -583 -104 -177 -143 -229 -249 -335 -116
-116 -238 -195 -421 -272 -187 -80 -472 -158 -574 -158 -85 0 -131 11 -424 99
-260 79 -342 94 -502 94 -118 -1 -144 -4 -207 -26 -40 -14 -92 -36 -115 -50
-102 -60 -207 -179 -228 -258 -49 -190 -165 -527 -251 -729 -56 -131 -175
-356 -250 -471 -109 -167 -260 -318 -369 -371 -104 -49 -184 -65 -258 -49
-107 24 -318 87 -432 131 -30 11 -68 26 -85 32 -62 23 -221 110 -265 145 -100
80 -144 150 -144 233 -1 141 132 280 413 429 133 71 145 90 149 236 3 120 -20
190 -79 237 -35 28 -42 30 -185 38 -82 5 -174 14 -204 19 -187 32 -300 122
-352 281 -16 51 -22 102 -27 230 l-6 166 -35 59 c-64 108 -148 175 -203 161
-29 -7 -44 -20 -138 -126 -173 -194 -374 -472 -490 -677 -10 -18 -29 -50 -40
-70 -12 -21 -60 -112 -107 -203 -162 -314 -235 -423 -340 -505 -106 -83 -123
-86 -372 -59 -190 20 -294 9 -326 -34 -44 -59 -9 -273 72 -438 31 -64 37 -69
153 -146 134 -88 240 -197 292 -302 44 -89 68 -181 69 -261 0 -27 -10 -119
-21 -202 -30 -209 -26 -221 91 -313 106 -84 140 -130 140 -189 0 -56 -17 -86
-84 -149 -91 -86 -185 -116 -288 -92 -76 18 -129 47 -252 140 -142 106 -143
106 -210 -20 -116 -217 -208 -349 -336 -484 -284 -299 -630 -388 -1016 -261
-158 52 -372 168 -609 330 -175 119 -233 145 -272 120 -40 -27 -56 -71 -51
-144 6 -78 36 -148 139 -328 l72 -123 -23 -63 c-59 -166 -81 -269 -83 -387 -2
-100 1 -120 19 -150 31 -54 63 -65 121 -43 100 37 371 14 512 -44 135 -55 241
-136 277 -211 86 -180 -28 -403 -334 -654 -44 -37 -70 -64 -65 -71 4 -7 99
-154 211 -327 113 -173 225 -345 249 -383 l43 -67 -53 1 c-78 3 -89 1 -81 -13
6 -10 5 -10 -7 -1 -17 14 -30 14 -46 1 -9 -7 -13 -7 -13 1 0 8 -5 9 -19 1 -16
-8 -20 -6 -24 8 -4 16 -5 16 -6 0 0 -10 -6 -18 -12 -18 -5 0 -7 5 -4 10 9 15
-4 12 -21 -4 -12 -13 -19 -13 -48 -1 -24 10 -36 11 -44 3 -8 -8 -15 -8 -26 1
-8 7 -17 8 -20 3 -2 -4 -23 -7 -45 -6 -24 1 -41 -3 -41 -9 0 -8 -3 -8 -11 0
-6 6 -18 9 -27 6 -11 -5 -13 -2 -7 6 6 10 3 11 -14 2 -11 -7 -21 -9 -21 -5 0
3 -6 1 -14 -5 -11 -9 -15 -9 -20 1 -5 10 -7 10 -12 1 -3 -7 -16 -13 -30 -13
-25 0 -28 4 -501 728 l-185 282 -94 0 -94 0 53 -82 c40 -62 896 -1371 1000
-1529 l17 -26 -555 -847 c-350 -535 -555 -856 -555 -872 l0 -24 355 0 354 0
27 45 c22 38 31 45 57 45 31 0 42 16 371 521 367 563 353 547 378 453 16 -64
22 -454 8 -558 -25 -187 -62 -318 -127 -456 -205 -431 -623 -647 -1214 -627
l-168 5 -17 -44 c-60 -157 86 -486 400 -904 173 -231 404 -490 520 -583 l39
-31 121 2 c140 3 224 -15 340 -74 313 -160 578 -560 665 -1004 85 -439 -47
-804 -332 -912 -27 -10 -81 -25 -121 -33 -39 -8 -81 -20 -93 -27 -48 -24 -68
-124 -39 -191 8 -18 34 -51 59 -75 55 -52 72 -56 377 -82 124 -11 270 -24 325
-30 170 -17 239 -25 465 -60 97 -14 351 -68 475 -100 445 -114 836 -293 1139
-523 126 -95 349 -322 379 -385 40 -84 65 -204 77 -377 19 -257 42 -335 110
-370 40 -21 78 -19 178 10 241 68 491 176 723 312 284 166 448 218 571 178 85
-28 260 -121 438 -233 346 -217 548 -289 785 -281 89 4 108 8 167 37 108 53
165 130 263 357 103 239 215 364 421 468 119 60 377 130 478 130 64 -1 226
-54 407 -134 283 -124 479 -276 632 -491 26 -36 47 -68 47 -70 0 -7 105 -193
124 -220 33 -47 123 -77 141 -48 20 32 157 -5 390 -105 172 -74 252 -98 327
-99 93 -1 110 16 127 127 46 299 115 534 226 765 222 460 562 769 1073 971
125 50 279 97 512 158 272 70 275 71 341 101 75 34 75 34 61 190 -11 122 -19
174 -52 357 -15 80 -49 236 -54 244 -3 4 2 47 9 96 13 84 20 123 45 258 18 99
50 216 70 259 37 79 178 252 264 326 91 76 120 86 301 94 88 4 176 11 195 16
184 49 432 237 495 375 14 30 30 90 35 133 24 186 70 272 232 431 97 96 105
102 223 173 185 111 284 187 450 349 229 223 346 307 670 485 72 39 169 91
218 114 48 24 87 44 87 45 0 1 5 58 10 127 12 163 6 210 -36 268 -64 89 -87
134 -120 232 -51 151 -52 164 -17 203 49 55 100 147 130 232 26 74 28 91 28
235 0 144 -2 161 -29 244 -55 169 -166 298 -365 428 -58 37 -215 123 -349 190
-134 68 -260 137 -279 153 -39 34 -64 96 -54 134 6 21 15 27 52 33 102 18 254
-39 376 -141 38 -31 76 -62 86 -70 16 -13 23 -9 73 40 29 29 54 49 54 44 0 -5
13 4 30 20 16 16 31 27 33 24 85 -120 128 -156 173 -145 47 12 81 129 109 378
4 33 15 67 26 82 17 21 18 28 7 45 -23 37 38 291 103 429 39 85 38 122 -5 165
-50 51 -93 55 -169 19 -105 -49 -152 -109 -207 -262 -16 -46 -30 -85 -30 -87
0 -2 -27 10 -60 27 -146 74 -360 110 -541 91 -186 -20 -288 -60 -473 -190
-140 -98 -234 -197 -286 -305 -53 -108 -70 -180 -70 -296 0 -113 19 -198 61
-283 106 -211 268 -347 635 -533 217 -110 280 -150 332 -209 49 -56 67 -111
52 -165 -14 -52 -38 -64 -135 -64 -153 -1 -343 93 -485 238 l-44 46 -49 -47
c-26 -27 -56 -48 -65 -48 -19 0 -392 -401 -392 -422 0 -21 179 -196 247 -242
131 -87 261 -140 412 -166 104 -19 330 -19 431 -1 41 8 76 13 78 11 9 -8 -97
-145 -168 -216 -67 -66 -106 -95 -176 -131 -176 -91 -296 -112 -611 -107
l-231 4 -118 80 c-199 135 -355 307 -412 455 -31 81 -41 126 -48 210 l-6 75
54 70 c29 39 72 106 95 150 104 202 130 372 143 955 8 363 9 380 38 515 51
241 97 356 192 484 88 119 94 133 94 231 0 128 -22 249 -50 277 -21 21 -31 23
-137 23 -102 0 -118 2 -147 23 -43 28 -68 71 -86 144 -22 94 -18 156 11 192
29 34 102 71 190 95 205 57 273 122 246 233 -26 102 -103 214 -268 391 -217
232 -300 345 -352 481 -93 241 -50 508 125 776 147 224 299 315 674 400 211
48 272 92 306 217 16 62 18 146 4 182 -7 21 -16 26 -42 26 -75 0 -176 47 -233
107 -31 34 -49 94 -40 134 9 38 223 257 315 321 173 121 274 160 519 198 35 5
69 14 76 20 7 6 14 53 19 126 9 166 24 224 85 329 60 104 71 156 71 344 0 170
-4 191 -40 191 -34 0 -412 -311 -587 -483 l-111 -110 -34 21 c-60 37 -145 52
-324 59 l-171 6 -26 -69 c-43 -114 -51 -185 -32 -290 44 -242 44 -287 1 -304
-44 -16 -93 -69 -119 -128 -26 -58 -36 -107 -60 -292 l-12 -95 -69 -8 c-63 -7
-111 -17 -271 -62 -91 -25 -199 -23 -259 6 -58 27 -139 105 -196 189 -61 90
-68 93 -207 87 -65 -3 -163 -10 -218 -17 -221 -27 -479 5 -618 77 -27 14 -28
13 -47 -29 -10 -24 -21 -65 -25 -93 -31 -246 -69 -324 -196 -406 -64 -41 -222
-109 -254 -109 -51 0 -156 54 -221 112 -72 67 -126 154 -193 315 -73 175 -84
195 -120 226 -30 25 -30 25 -25 111 3 48 14 121 24 163 11 42 20 99 20 126 0
47 -3 54 -47 96 -64 61 -187 141 -228 148 -48 8 -101 -21 -129 -71 -39 -68
-51 -138 -50 -292 l1 -141 -60 -7 c-76 -8 -140 -37 -269 -124 -164 -110 -157
-106 -223 -107 -58 0 -63 2 -134 56 -87 67 -175 112 -257 134 -49 13 -93 15
-249 10 -254 -9 -300 6 -391 119 -139 172 -207 410 -207 726 -1 319 42 437
220 610 186 179 362 295 533 351 66 21 93 24 220 24 169 -1 186 -5 425 -103
285 -116 314 -118 442 -33 130 86 178 110 262 132 165 41 375 9 601 -93 l65
-29 15 23 c34 53 93 106 142 130 96 46 136 51 391 49 342 -2 370 8 444 167
107 233 170 350 270 505 95 147 176 245 406 491 255 272 343 514 397 1101 15
161 14 398 -1 427 -28 52 -59 59 -109 25z m-5990 -5328 c594 -46 1221 -189
1771 -402 125 -48 147 -58 346 -149 923 -421 1686 -1107 2186 -1965 138 -235
335 -661 387 -835 l9 -28 -300 0 -299 0 0 -45 0 -45 -65 0 -65 0 0 -633 c0
-634 8 -862 36 -1057 59 -405 309 -714 664 -820 89 -26 231 -50 301 -50 67 0
65 2 50 -91 -5 -30 -14 -88 -21 -129 -23 -148 -70 -366 -104 -480 -8 -25 -24
-79 -36 -120 -151 -511 -411 -1019 -760 -1485 -145 -193 -291 -359 -494 -560
-431 -428 -897 -761 -1453 -1037 -103 -52 -213 -105 -243 -117 -30 -13 -101
-43 -158 -67 -94 -40 -232 -90 -407 -149 -122 -41 -348 -103 -530 -145 -156
-37 -459 -84 -705 -111 -66 -8 -246 -13 -425 -13 -340 0 -435 8 -765 64 -610
106 -1291 363 -1850 700 -296 178 -559 371 -845 620 -91 79 -418 413 -504 514
-358 423 -619 846 -829 1346 -52 124 -137 363 -162 455 -5 17 -15 55 -23 85
-55 198 -95 378 -117 520 -7 41 -16 99 -21 129 -5 30 -9 72 -9 93 l0 38 180 2
180 3 -25 37 c-14 20 -25 39 -25 42 0 3 38 7 84 8 l84 3 -259 395 c-229 350
-259 400 -259 435 0 65 19 362 30 475 92 913 440 1775 1009 2500 242 308 547
615 871 876 215 174 523 382 775 524 368 208 756 373 1195 508 282 87 709 163
985 176 111 5 478 -4 615 -15z m-5040 -2504 c0 -15 -684 -1044 -697 -1049 -8
-4 -23 -1 -31 6 -13 11 -14 11 -8 0 6 -10 1 -11 -20 -6 -22 6 -25 4 -18 -7 6
-10 0 -8 -19 4 -29 19 -52 23 -42 7 9 -14 -19 -12 -33 2 -9 9 -12 9 -12 0 0
-7 -8 -12 -18 -12 -10 0 -23 5 -30 12 -9 9 -12 9 -12 -1 0 -7 -5 -9 -12 -5
-20 12 -89 12 -85 0 5 -12 -64 -13 -83 -1 -6 3 -10 1 -10 -6 0 -8 -5 -7 -17 2
-15 12 -16 12 -8 -1 8 -13 7 -13 -9 -1 -14 12 -19 12 -29 1 -10 -10 -9 -11 2
-5 10 6 12 4 7 -4 -9 -13 -37 -11 -48 4 -5 6 -8 6 -8 -2 0 -12 -24 -12 -36 0
-4 3 -16 1 -27 -5 -16 -8 -22 -8 -25 1 -2 6 -11 11 -20 11 -13 0 -14 -2 -4 -9
8 -5 0 -7 -22 -7 -33 1 -34 2 -22 21 7 11 164 253 350 538 l338 517 354 0
c195 0 354 -2 354 -5z m9815 -1100 c61 -201 91 -315 141 -550 69 -322 119
-705 140 -1079 l7 -118 -24 7 c-96 29 -192 117 -239 218 -60 128 -62 161 -67
942 -3 390 -2 708 1 705 2 -3 21 -59 41 -125z m-10810 37 c-3 -3 -11 0 -18 7
-9 10 -8 11 6 5 10 -3 15 -9 12 -12z"/>
<path d="M4050 8260 l0 -1690 320 0 320 0 0 45 0 45 60 0 60 0 -1 1093 c-1
600 -4 1137 -8 1192 l-6 100 -27 0 c-14 0 -30 3 -34 8 -10 10 -36 9 -30 -2 3
-5 -1 -11 -9 -15 -8 -3 -15 0 -15 6 0 7 -5 6 -15 -2 -14 -11 -19 -7 -16 12 0
4 -6 5 -14 2 -8 -4 -15 -11 -15 -18 0 -7 -4 -6 -9 3 -6 9 -11 10 -15 2 -5 -8
-13 -8 -26 -1 -11 6 -21 6 -24 1 -7 -10 -83 -7 -93 3 -10 10 -25 7 -18 -4 3
-6 -1 -7 -9 -4 -10 4 -16 1 -16 -7 0 -11 -3 -11 -10 1 -6 9 -13 11 -17 5 -12
-15 -47 -19 -37 -4 5 8 3 10 -5 4 -18 -10 -81 -14 -75 -3 7 10 1 10 -30 -2
-17 -6 -26 -6 -26 1 0 6 -7 6 -20 -1 -11 -6 -20 -7 -19 -3 1 4 1 214 0 466
l-1 457 -60 0 -60 0 0 -1690z"/>
<path d="M5154 9928 c3 -13 271 -772 595 -1688 l589 -1665 315 -3 315 -2 14
42 c14 41 16 43 60 46 l45 3 293 817 c406 1133 590 1654 589 1672 0 12 -2 11
-7 -2 -5 -13 -11 -15 -22 -8 -12 8 -12 10 -1 10 8 0 12 2 9 5 -9 10 -38 -7
-31 -18 4 -6 1 -7 -8 -2 -17 11 -59 16 -59 7 0 -4 -38 -8 -85 -9 -52 -1 -83 2
-80 7 4 6 -6 5 -22 -1 -20 -7 -29 -7 -31 1 -3 7 -10 4 -19 -7 -11 -13 -13 -14
-10 -3 3 10 -2 16 -14 16 -11 0 -19 -4 -19 -9 0 -4 -4 -5 -10 -2 -5 3 -10 0
-10 -7 0 -10 -2 -10 -8 -1 -5 8 -13 9 -22 3 -20 -13 -33 -12 -25 0 3 6 -4 10
-17 10 -19 0 -20 -2 -8 -11 12 -8 9 -9 -10 -4 -36 9 -99 12 -95 4 3 -3 -7 -4
-21 -1 -18 3 -23 9 -19 21 4 9 68 187 142 396 75 209 138 386 140 393 4 8 -9
12 -43 12 l-49 0 -389 -1085 c-214 -597 -391 -1083 -394 -1080 -3 2 -100 271
-217 597 -116 326 -222 621 -235 655 -20 57 -25 62 -51 61 -16 -1 -29 -5 -29
-11 0 -5 -7 -4 -16 4 -10 8 -18 9 -22 2 -8 -11 -56 -9 -86 3 -13 5 -17 4 -13
-3 4 -6 -3 -13 -14 -16 -16 -4 -19 -2 -14 11 5 13 1 12 -16 -4 -16 -13 -23
-15 -26 -6 -3 6 -9 12 -14 12 -6 0 -8 -3 -6 -7 3 -5 -10 -8 -29 -8 -19 0 -34
2 -34 6 0 3 -6 6 -14 6 -8 0 -15 -3 -14 -6 2 -19 -4 -21 -18 -6 -13 13 -19 14
-25 4 -6 -10 -11 -10 -25 2 -11 9 -15 9 -10 2 4 -7 2 -13 -3 -13 -6 0 -11 6
-11 13 0 8 -4 7 -10 -3 -9 -13 -10 -13 -10 0 -1 11 -4 10 -15 -4 -8 -11 -15
-15 -15 -9 0 6 -8 10 -17 8 -10 -1 -26 2 -35 7 -13 6 -18 5 -18 -4 0 -10 -2
-10 -9 1 -6 9 -11 10 -15 3 -4 -6 -13 -9 -20 -6 -7 3 -83 201 -167 439 l-154
435 -79 0 c-76 0 -78 -1 -72 -22z"/>
<path d="M10050 8260 l0 -1690 330 0 330 0 0 45 0 45 55 0 55 0 2 611 3 611
345 -656 345 -655 357 -1 357 0 -26 45 -25 45 81 0 c45 0 81 3 81 6 0 4 -171
329 -379 723 -209 394 -383 723 -386 731 -4 11 13 26 58 52 96 55 307 227 361
294 60 76 130 217 158 319 18 67 21 109 22 260 1 99 -2 192 -6 206 -8 28 -36
34 -51 12 -9 -14 -40 -6 -31 9 9 15 -30 5 -42 -11 -9 -11 -12 -11 -18 4 -6 17
-7 17 -22 -1 -9 -10 -12 -12 -8 -4 7 13 5 13 -8 2 -12 -9 -18 -10 -23 -2 -4 7
-17 9 -29 5 -41 -12 -56 -14 -55 -7 3 19 -2 23 -16 12 -8 -6 -29 -10 -49 -7
-19 2 -39 0 -45 -6 -8 -8 -14 -8 -23 1 -14 14 -32 16 -24 3 10 -15 -43 -19
-63 -5 -16 12 -46 13 -71 4 -3 -2 -8 -2 -12 -1 -5 0 -8 -3 -8 -8 0 -21 -48 6
-87 49 -50 55 -129 94 -223 109 -36 6 -149 11 -252 11 l-188 0 0 -44 0 -44
128 -6 c233 -12 322 -37 397 -111 62 -63 89 -135 89 -235 0 -97 -15 -158 -47
-196 -35 -41 -119 -55 -359 -61 l-208 -5 0 255 c0 177 -3 258 -11 263 -6 3
-14 2 -18 -3 -7 -10 -21 -11 -38 0 -16 10 -44 -3 -36 -17 5 -8 3 -8 -8 1 -8 6
-31 11 -51 11 -20 0 -41 3 -47 6 -5 4 -13 1 -17 -5 -5 -8 -3 -9 6 -4 8 5 11 4
6 -3 -5 -8 -61 -10 -61 -1 0 1 -19 2 -42 3 -23 1 -40 -2 -37 -6 3 -4 -3 -8
-13 -9 -10 0 -30 -2 -45 -3 -16 -1 -28 2 -28 6 0 4 8 8 17 8 9 0 14 3 10 6 -3
4 -14 3 -24 -1 -27 -12 -73 -12 -73 0 0 5 -5 3 -10 -5 -7 -11 -10 -11 -10 -2
0 7 -5 10 -10 7 -6 -4 -8 -11 -5 -16 4 -5 -5 -5 -20 1 -32 12 -38 12 -31 2 3
-5 -5 -8 -17 -7 l-22 2 -3 371 -2 372 -65 0 -65 0 0 -1690z m1600 996 c0 -11
-19 -15 -25 -6 -3 5 1 10 9 10 9 0 16 -2 16 -4z"/>
</g>
</svg>
